<?xml version="1.0" encoding="UTF-8"?>
<!-- (c) Carrd Inc. All rights reserved. All logos and trademarks are property of their respective owners. -->
<svg xmlns="http://www.w3.org/2000/svg" version="1.1" xmlns:xlink="http://www.w3.org/1999/xlink" viewBox="0 0 40 40" display="none" width="0" height="0">
	<symbol id="facebook" viewBox="0 0 40 40"><path d="M38,20.1c0-9.9-8.1-18-18-18S2,10.1,2,20.1s5.8,15.5,13.7,17.5v-12h-3.7v-5.5h3.7v-2.4c0-6.1,2.8-9,8.8-9s3.1.2,3.9.4v5c-.4,0-1.2,0-2.1,0-3,0-4.1,1.1-4.1,4v1.9h5.9l-1,5.5h-4.9v12.4c8.9-1.1,15.8-8.7,15.8-17.9Z"/></symbol>
	<symbol id="instagram" viewBox="0 0 40 40"><path d="M20,7c4.2,0,4.7,0,6.3,0.1c1.5,0.1,2.3,0.3,3,0.5C30,8,30.5,8.3,31.1,8.9c0.5,0.5,0.9,1.1,1.2,1.8c0.2,0.5,0.5,1.4,0.5,3 C33,15.3,33,15.8,33,20s0,4.7-0.1,6.3c-0.1,1.5-0.3,2.3-0.5,3c-0.3,0.7-0.6,1.2-1.2,1.8c-0.5,0.5-1.1,0.9-1.8,1.2 c-0.5,0.2-1.4,0.5-3,0.5C24.7,33,24.2,33,20,33s-4.7,0-6.3-0.1c-1.5-0.1-2.3-0.3-3-0.5C10,32,9.5,31.7,8.9,31.1 C8.4,30.6,8,30,7.7,29.3c-0.2-0.5-0.5-1.4-0.5-3C7,24.7,7,24.2,7,20s0-4.7,0.1-6.3c0.1-1.5,0.3-2.3,0.5-3C8,10,8.3,9.5,8.9,8.9 C9.4,8.4,10,8,10.7,7.7c0.5-0.2,1.4-0.5,3-0.5C15.3,7.1,15.8,7,20,7z M20,4.3c-4.3,0-4.8,0-6.5,0.1c-1.6,0-2.8,0.3-3.8,0.7 C8.7,5.5,7.8,6,6.9,6.9C6,7.8,5.5,8.7,5.1,9.7c-0.4,1-0.6,2.1-0.7,3.8c-0.1,1.7-0.1,2.2-0.1,6.5s0,4.8,0.1,6.5 c0,1.6,0.3,2.8,0.7,3.8c0.4,1,0.9,1.9,1.8,2.8c0.9,0.9,1.7,1.4,2.8,1.8c1,0.4,2.1,0.6,3.8,0.7c1.6,0.1,2.2,0.1,6.5,0.1 s4.8,0,6.5-0.1c1.6-0.1,2.9-0.3,3.8-0.7c1-0.4,1.9-0.9,2.8-1.8c0.9-0.9,1.4-1.7,1.8-2.8c0.4-1,0.6-2.1,0.7-3.8 c0.1-1.6,0.1-2.2,0.1-6.5s0-4.8-0.1-6.5c-0.1-1.6-0.3-2.9-0.7-3.8c-0.4-1-0.9-1.9-1.8-2.8c-0.9-0.9-1.7-1.4-2.8-1.8 c-1-0.4-2.1-0.6-3.8-0.7C24.8,4.3,24.3,4.3,20,4.3L20,4.3L20,4.3z"/><path d="M20,11.9c-4.5,0-8.1,3.7-8.1,8.1s3.7,8.1,8.1,8.1s8.1-3.7,8.1-8.1S24.5,11.9,20,11.9z M20,25.2c-2.9,0-5.2-2.3-5.2-5.2 s2.3-5.2,5.2-5.2s5.2,2.3,5.2,5.2S22.9,25.2,20,25.2z"/><path d="M30.6,11.6c0,1-0.8,1.9-1.9,1.9c-1,0-1.9-0.8-1.9-1.9s0.8-1.9,1.9-1.9C29.8,9.7,30.6,10.5,30.6,11.6z"/></symbol>
	<symbol id="linkedin" viewBox="0 0 40 40"><path d="M12.1,13.8v19.1H5.7V13.8C5.7,13.8,12.1,13.8,12.1,13.8z M12.5,7.9c0,0.9-0.3,1.7-1,2.4c-0.7,0.6-1.5,0.9-2.6,0.9h0 c-1.1,0-1.9-0.3-2.5-0.9c-0.6-0.6-1-1.4-1-2.4c0-1,0.3-1.7,1-2.4S7.9,4.6,9,4.6s1.9,0.3,2.6,0.9S12.5,6.9,12.5,7.9z M35,22v11h-6.4 V22.7c0-1.4-0.3-2.4-0.8-3.2c-0.5-0.8-1.3-1.1-2.4-1.1c-0.8,0-1.5,0.2-2,0.7c-0.5,0.4-1,1-1.2,1.7c-0.1,0.4-0.2,0.9-0.2,1.6v10.7 h-6.4c0-5.1,0-9.3,0-12.5s0-5.1,0-5.7l0-0.9H22v2.8h0c0.3-0.4,0.5-0.8,0.8-1.1c0.3-0.3,0.6-0.6,1.1-1c0.5-0.4,1-0.6,1.7-0.8 c0.7-0.2,1.4-0.3,2.2-0.3c2.2,0,4,0.7,5.3,2.2C34.4,17,35,19.1,35,22L35,22z"/></symbol>
	<symbol id="youtube" viewBox="0 0 40 40"><path d="M24.3,27v4.2c0,0.9-0.3,1.3-0.8,1.3c-0.3,0-0.6-0.1-0.9-0.4v-6c0.3-0.3,0.6-0.4,0.9-0.4C24,25.6,24.3,26.1,24.3,27L24.3,27z M31.1,27v0.9h-1.8V27c0-0.9,0.3-1.4,0.9-1.4C30.8,25.6,31.1,26.1,31.1,27L31.1,27z M11.7,22.6h2.1v-1.9H7.6v1.9h2.1v11.4h2 L11.7,22.6L11.7,22.6z M17.5,34.1h1.8v-9.9h-1.8v7.6c-0.4,0.6-0.8,0.8-1.1,0.8c-0.2,0-0.4-0.1-0.4-0.4c0,0,0-0.3,0-0.7v-7.3h-1.8V32 c0,0.7,0.1,1.1,0.2,1.5c0.2,0.5,0.5,0.7,1.2,0.7c0.6,0,1.3-0.4,2-1.2L17.5,34.1L17.5,34.1z M26.1,31.1v-4c0-1-0.1-1.6-0.2-2 c-0.2-0.7-0.7-1.1-1.4-1.1c-0.7,0-1.3,0.4-1.9,1.1v-4.4h-1.8v13.3h1.8v-1c0.6,0.7,1.2,1.1,1.9,1.1c0.7,0,1.2-0.4,1.4-1.1 C26,32.7,26.1,32.1,26.1,31.1L26.1,31.1z M32.9,30.9v-0.3H31c0,0.7,0,1.1,0,1.2c-0.1,0.5-0.4,0.7-0.8,0.7c-0.6,0-0.9-0.5-0.9-1.4 v-1.7h3.6v-2.1c0-1.1-0.2-1.8-0.5-2.3c-0.5-0.7-1.2-1-2.1-1c-0.9,0-1.6,0.3-2.1,1c-0.4,0.5-0.6,1.3-0.6,2.3v3.5 c0,1.1,0.2,1.8,0.6,2.3c0.5,0.7,1.2,1,2.2,1c1,0,1.7-0.4,2.2-1.1c0.2-0.4,0.4-0.7,0.4-1.1C32.9,31.9,32.9,31.5,32.9,30.9L32.9,30.9z M20.7,12.5V8.3c0-0.9-0.3-1.4-0.9-1.4c-0.6,0-0.9,0.5-0.9,1.4v4.2c0,0.9,0.3,1.4,0.9,1.4C20.4,14,20.7,13.5,20.7,12.5z M35.1,27.6 c0,3.1-0.2,5.5-0.5,7c-0.2,0.8-0.6,1.5-1.2,2c-0.6,0.5-1.3,0.8-2,0.9c-2.5,0.3-6.2,0.4-11.1,0.4s-8.7-0.1-11.1-0.4 c-0.8-0.1-1.5-0.4-2.1-0.9c-0.6-0.5-1-1.2-1.2-2c-0.3-1.5-0.5-3.8-0.5-7c0-3.1,0.2-5.5,0.5-7c0.2-0.8,0.6-1.5,1.2-2 c0.6-0.5,1.3-0.9,2.1-0.9c2.5-0.3,6.2-0.4,11.1-0.4s8.7,0.1,11.1,0.4c0.8,0.1,1.5,0.4,2.1,0.9c0.6,0.5,1,1.2,1.2,2 C34.9,22.1,35.1,24.4,35.1,27.6z M15.1,2h2l-2.4,8v5.4h-2V10c-0.2-1-0.6-2.4-1.2-4.3c-0.5-1.4-0.9-2.6-1.3-3.8h2.1l1.4,5.3L15.1,2z M22.5,8.7v3.5c0,1.1-0.2,1.9-0.6,2.4c-0.5,0.7-1.2,1-2.1,1c-0.9,0-1.6-0.3-2.1-1c-0.4-0.5-0.6-1.3-0.6-2.4V8.7 c0-1.1,0.2-1.9,0.6-2.3c0.5-0.7,1.2-1,2.1-1c0.9,0,1.6,0.3,2.1,1C22.3,6.8,22.5,7.6,22.5,8.7z M29.2,5.4v10h-1.8v-1.1 c-0.7,0.8-1.4,1.2-2.1,1.2c-0.6,0-1-0.2-1.2-0.7C24,14.5,24,14,24,13.4V5.4h1.8v7.4c0,0.4,0,0.7,0,0.7c0,0.3,0.2,0.4,0.4,0.4 c0.4,0,0.7-0.3,1.1-0.9V5.4C27.4,5.4,29.2,5.4,29.2,5.4z"/></symbol>
	<symbol id="email" viewBox="0 0 40 40"><path d="M37.5,12.6l-17.5,11.9L2.5,12.6c-.2-.1-.3-.2-.5-.2v-2.7c0-.8.6-1.4,1.4-1.4h33.1c.8,0,1.4.6,1.4,1.4v2.7c-.2,0-.4,0-.5.2ZM19.5,26.3c.2.1.3.2.5.2s.4,0,.5-.2l17.5-11.9v16.9c0,.8-.6,1.4-1.4,1.4H3.4c-.8,0-1.4-.6-1.4-1.4V14.4l17.5,11.9Z" /></symbol>
</svg>
